<?xml version="1.0" encoding="UTF-8" standalone="no"?>
<svg
   width="24"
   height="24"
   viewBox="0 0 24 24"
   version="1.1"
   id="svg116"
   xmlns="http://www.w3.org/2000/svg"
   xmlns:svg="http://www.w3.org/2000/svg">
  <defs
     id="defs120" />
  <path
     d="M 12,0 C 5.374,0 0,5.373 0,12 0,17.302 3.438,21.8 8.207,23.387 8.806,23.498 9,23.126 9,22.81 V 20.576 C 5.662,21.302 4.967,19.16 4.967,19.16 4.421,17.773 3.634,17.404 3.634,17.404 2.545,16.659 3.717,16.675 3.717,16.675 c 1.205,0.084 1.839,1.237 1.839,1.237 1.07,1.834 2.807,1.304 3.492,0.997 C 9.155,18.134 9.466,17.604 9.81,17.305 7.145,17 4.343,15.971 4.343,11.374 4.343,10.063 4.812,8.993 5.579,8.153 5.455,7.85 5.044,6.629 5.696,4.977 c 0,0 1.008,-0.322 3.301,1.23 C 9.954,5.941 10.98,5.808 12,5.803 c 1.02,0.005 2.047,0.138 3.006,0.404 2.291,-1.552 3.297,-1.23 3.297,-1.23 0.653,1.653 0.242,2.874 0.118,3.176 0.77,0.84 1.235,1.911 1.235,3.221 0,4.609 -2.807,5.624 -5.479,5.921 0.43,0.372 0.823,1.102 0.823,2.222 v 3.293 c 0,0.319 0.192,0.694 0.801,0.576 C 20.566,21.797 24,17.3 24,12 24,5.373 18.627,0 12,0 Z"
     id="path114" />
  <path
     style="fill:#ffffff;stroke-width:0.101695"
     d="M 7.4396299,23.029995 C 3.7595153,21.53524 1.0179905,18.15154 0.25403105,14.161239 0.04611533,13.075256 0.04474409,10.938094 0.25126877,9.8560408 1.180751,4.986169 4.828594,1.316582 9.8135593,0.23675173 10.177557,0.1579036 11.080188,0.10628449 12.050847,0.10880716 c 1.835889,0.004771 2.843968,0.19292709 4.404694,0.82212599 3.784197,1.52557965 6.523023,4.87751955 7.292586,8.92510765 0.204922,1.0778092 0.203293,3.2186712 -0.0033,4.3051982 -0.759776,3.996296 -3.521919,7.398579 -7.20327,8.872663 -1.470368,0.588764 -1.490016,0.562241 -1.493219,-2.015742 -0.0027,-2.169678 -0.07869,-2.715341 -0.458706,-3.293481 l -0.247813,-0.377016 0.379926,-0.06523 c 3.386289,-0.581363 4.925177,-2.351239 4.94671,-5.689217 0.0087,-1.342108 -0.16114,-1.9874623 -0.758132,-2.8814657 C 18.521918,8.1300735 18.50329,8.0690425 18.603763,7.7072401 18.755316,7.1614904 18.73742,6.4575817 18.551174,5.6387192 L 18.390477,4.9322034 h -0.433555 c -0.572644,0 -1.474122,0.3182986 -2.31308,0.8167149 l -0.68015,0.4040691 -0.69371,-0.1708802 C 13.771227,5.8592504 13.133284,5.8112271 12,5.8112271 c -1.133284,0 -1.771227,0.048023 -2.2699817,0.1708801 L 9.0363077,6.1529874 8.3477583,5.7439277 C 7.485992,5.2319618 6.6450142,4.9322034 6.0704506,4.9322034 c -0.4223652,0 -0.4488636,0.01785 -0.566129,0.3813559 C 5.31009,5.9156492 5.2460761,7.0983482 5.3791212,7.6267184 5.4963363,8.0922216 5.4916221,8.1098021 5.087178,8.7154619 4.4926911,9.605713 4.3228732,10.25243 4.3315224,11.59322 c 0.01197,1.855515 0.462414,3.129329 1.458576,4.124717 0.7105753,0.710021 1.5743089,1.144024 2.848823,1.431451 L 9.631625,17.373262 9.3906872,17.728304 C 9.2581713,17.923577 9.1224548,18.254036 9.0890949,18.462657 9.0182285,18.905831 8.7683986,19.058726 7.9830508,19.139554 6.9477715,19.246103 6.5037429,18.982742 5.2922781,17.543606 4.8259483,16.989639 4.2230882,16.633282 3.7456055,16.629352 c -0.7302043,-0.006 -0.7926206,0.359171 -0.1383302,0.809335 0.5054545,0.347762 0.9196612,0.897791 1.3321438,1.768968 0.5253787,1.109616 1.3912273,1.546918 3.018208,1.524362 l 0.9915254,-0.01375 v 1.150549 c 0,1.613961 -0.1364113,1.718893 -1.5095226,1.161175 z"
     id="path364" />
</svg>
