<?xml version="1.0" encoding="UTF-8" standalone="no"?>
<svg
   width="24"
   height="24"
   viewBox="0 0 24 24"
   version="1.1"
   id="svg443"
   xmlns="http://www.w3.org/2000/svg"
   xmlns:svg="http://www.w3.org/2000/svg">
  <defs
     id="defs447" />
  <path
     d="M 4.98,3.5 C 4.98,4.881 3.87,6 2.5,6 1.13,6 0.02,4.881 0.02,3.5 0.02,2.12 1.13,1 2.5,1 3.87,1 4.98,2.12 4.98,3.5 Z M 5,8 H 0 v 16 h 5 z m 7.982,0 H 8.014 v 16 h 4.969 v -8.399 c 0,-4.67 6.029,-5.052 6.029,0 V 24 H 24 V 13.869 C 24,5.989 15.078,6.276 12.982,10.155 Z"
     id="path441" />
  <path
     style="fill:#ffffff;stroke-width:0.101695"
     d="M 0,16.016949 V 8.0847458 h 2.4915254 2.4915254 v 7.9322032 7.932204 H 2.4915254 0 Z"
     id="path498" />
  <path
     style="fill:#ffffff;stroke-width:0.101695"
     d="M 1.7196402,5.8159124 C 1.1175523,5.5904762 0.63105557,5.1477075 0.34658657,4.5662739 -0.40354883,3.0330524 0.63468949,1.2107641 2.3281598,1.0882696 c 1.0213528,-0.073878 2.0236693,0.5361669 2.4133754,1.4688647 0.076901,0.184051 0.1398207,0.6241494 0.1398207,0.9779963 0,1.2634666 -0.9440598,2.2809503 -2.2024014,2.373692 C 2.3226879,5.93508 1.9385447,5.8978755 1.7196402,5.8159124 Z"
     id="path500" />
  <path
     style="fill:#ffffff;stroke-width:0.101695"
     d="M 8.0338983,16.016949 V 8.0847458 h 2.4372377 2.437237 l 0.02886,1.0610934 0.02886,1.0610938 0.457627,-0.5721458 c 0.97707,-1.221576 2.511304,-1.9324712 4.372881,-2.0261965 2.989151,-0.1504955 5.217636,1.4727738 5.958885,4.3405623 0.146964,0.568585 0.177311,1.453798 0.217022,6.330508 l 0.04616,5.669492 h -2.500866 -2.500867 v -4.616407 c 0,-4.398109 -0.01007,-4.649007 -0.212938,-5.305819 -0.176059,-0.570013 -0.312556,-0.788689 -0.788135,-1.262631 -0.675391,-0.673067 -1.192029,-0.862372 -2.172908,-0.796193 -1.432935,0.09668 -2.471167,1.095469 -2.81327,2.706394 -0.07465,0.351539 -0.114444,2.057521 -0.114444,4.90678 v 4.367876 H 10.474576 8.0338983 Z"
     id="path502" />
</svg>
