<?xml version="1.0" encoding="UTF-8" standalone="no"?>
<svg
   width="24"
   height="24"
   viewBox="0 0 24 24"
   version="1.1"
   id="svg396"
   xmlns="http://www.w3.org/2000/svg"
   xmlns:svg="http://www.w3.org/2000/svg">
  <defs
     id="defs400" />
  <path
     d="M 24,4.557 C 23.117,4.949 22.168,5.213 21.172,5.332 22.189,4.723 22.97,3.758 23.337,2.608 22.386,3.172 21.332,3.582 20.21,3.803 19.313,2.846 18.032,2.248 16.616,2.248 13.437,2.248 11.101,5.214 11.819,8.293 7.728,8.088 4.1,6.128 1.671,3.149 0.381,5.362 1.002,8.257 3.194,9.723 2.388,9.697 1.628,9.476 0.965,9.107 c -0.054,2.281 1.581,4.415 3.949,4.89 -0.693,0.188 -1.452,0.232 -2.224,0.084 0.626,1.956 2.444,3.379 4.6,3.419 -2.07,1.623 -4.678,2.348 -7.29,2.04 2.179,1.397 4.768,2.212 7.548,2.212 9.142,0 14.307,-7.721 13.995,-14.646 C 22.505,6.411 23.34,5.544 24,4.557 Z"
     id="path394" />
  <path
     style="fill:#ffffff;stroke-width:0.0205656"
     d="M 6.8894602,21.725839 C 4.5919181,21.617699 2.3901454,20.953717 0.39276938,19.76665 0.21473826,19.660844 0.09088741,19.575497 0.10996002,19.571763 c 0.0186631,-0.0037 0.150133,0.0033 0.29215541,0.01542 0.32475896,0.02775 1.23584007,0.0283 1.56189487,9.3e-4 1.8842793,-0.158147 3.6635418,-0.828171 5.1482046,-1.93868 L 7.3102834,17.501285 7.1358614,17.4866 C 6.3613814,17.421395 5.805433,17.274119 5.2037987,16.97478 4.6706357,16.709508 4.278951,16.422397 3.855352,15.986348 3.4755611,15.595395 3.2183889,15.233365 2.9816516,14.756412 2.8638168,14.519011 2.7026478,14.123401 2.7176539,14.108395 c 0.00439,-0.0044 0.1003665,0.0054 0.2132855,0.02182 0.3122666,0.04532 0.8048362,0.05893 1.0999089,0.0304 0.3741991,-0.03618 0.8843188,-0.129887 0.8843188,-0.162443 0,-0.0077 -0.07635,-0.03072 -0.1696658,-0.05119 C 4.5200498,13.897496 4.1522307,13.772416 3.8902702,13.65614 2.8539319,13.196145 1.987396,12.360189 1.4807167,11.33162 1.1679661,10.69673 1.0182536,10.11333 0.97544415,9.3626723 L 0.96167496,9.1212315 1.2366216,9.253012 c 0.55407,0.2655628 1.0851978,0.4095256 1.7124682,0.4641664 0.1345958,0.011725 0.248147,0.01789 0.252336,0.013701 0.00419,-0.00419 -0.09668,-0.084767 -0.224154,-0.1790626 C 2.687957,9.3378034 2.2214001,8.8731955 2.007522,8.5861183 1.4824196,7.8813006 1.1616058,7.0786353 1.0458104,6.1799486 1.0094663,5.897882 1.0156326,5.2747895 1.0577165,4.9768638 1.1400604,4.3939247 1.3359061,3.783609 1.5879599,3.3244617 c 0.079387,-0.1446123 0.084454,-0.1494809 0.117741,-0.1131106 0.019131,0.020903 0.1173722,0.1343011 0.2183135,0.2519949 2.1300633,2.4835743 5.1631496,4.1769565 8.3793276,4.6782065 0.532159,0.082938 1.209742,0.1562367 1.447128,0.1565448 0.07601,1.028e-4 0.07898,-0.00239 0.06731,-0.056452 C 11.73157,7.8422413 11.713601,7.6594705 11.713126,7.177378 11.712622,6.6673858 11.732836,6.4678068 11.825589,6.0668381 11.95403,5.511602 12.21,4.9258107 12.535516,4.4421595 13.604408,2.8540023 15.444125,2.0385367 17.33676,2.3139801 c 0.998603,0.1453312 1.943495,0.6083225 2.676365,1.3114026 l 0.199025,0.1909352 0.233256,-0.052331 c 0.93338,-0.2094023 1.904911,-0.5829982 2.729361,-1.049557 0.153464,-0.086845 0.151947,-0.09435 0.04018,0.1986041 -0.340434,0.8923348 -1.081405,1.7948611 -1.89856,2.3125097 -0.08483,0.053738 -0.150248,0.1016931 -0.145374,0.1065678 0.0127,0.012699 0.325682,-0.030745 0.649036,-0.090091 0.586018,-0.1075532 1.291061,-0.3116194 1.846028,-0.5343102 0.153228,-0.061486 0.281306,-0.1090821 0.284619,-0.1057701 0.01186,0.011858 -0.376545,0.5309105 -0.598513,0.7998405 -0.419031,0.5076849 -1.134106,1.1879981 -1.655527,1.5750492 l -0.154242,0.1144938 -0.002,0.6188627 c -0.0039,1.2377125 -0.139593,2.2935766 -0.449458,3.4980396 -0.955367,3.71352 -3.327397,6.890845 -6.510028,8.720144 -2.26118,1.299671 -4.9445519,1.926761 -7.6915168,1.797469 z"
     id="path402" />
</svg>
